<svg id="Grupo_16768" data-name="Grupo 16768" xmlns="http://www.w3.org/2000/svg" xmlns:xlink="http://www.w3.org/1999/xlink" width="285.289" height="40.199" viewBox="0 0 285.289 40.199">
  <defs>
    <clipPath id="clip-path">
      <rect id="Rectángulo_13127" data-name="Rectángulo 13127" width="285.288" height="40.198" fill="none"/>
    </clipPath>
  </defs>
  <path id="Trazado_14355" data-name="Trazado 14355" d="M374.3,0l-3.179,15.994h54.556L428.861,0Z" transform="translate(-143.572 0)" fill="#ef8417"/>
  <path id="Trazado_14356" data-name="Trazado 14356" d="M385.429,13.961l-.2-1.04H382.6l-.567,1.04h-1.968l3.844-6.509h1.987l1.606,6.509Zm-2.061-2.451h1.578l-.418-2.145Z" transform="translate(-147.03 -2.883)" fill="#fff"/>
  <path id="Trazado_14357" data-name="Trazado 14357" d="M395.22,12.344h2.739l-.325,1.616h-4.67l1.3-6.509h1.931Z" transform="translate(-152.02 -2.882)" fill="#fff"/>
  <g id="Grupo_16769" data-name="Grupo 16769" transform="translate(0 0)">
    <g id="Grupo_16768-2" data-name="Grupo 16768" transform="translate(0 0)" clip-path="url(#clip-path)">
      <path id="Trazado_14358" data-name="Trazado 14358" d="M406.539,7.57a3.279,3.279,0,0,1,1.151.845l-1.263,1.327a2.059,2.059,0,0,0-.663-.645,1.535,1.535,0,0,0-.794-.237,1.59,1.59,0,0,0-.863.251,1.819,1.819,0,0,0-.636.687,2,2,0,0,0-.237.966,1.757,1.757,0,0,0,.177.8,1.377,1.377,0,0,0,.5.557,1.311,1.311,0,0,0,.72.2,1.936,1.936,0,0,0,.822-.209,3.071,3.071,0,0,0,.8-.552l.993,1.189a4.517,4.517,0,0,1-1.37.919,3.779,3.779,0,0,1-1.518.343,3.223,3.223,0,0,1-1.616-.4,2.842,2.842,0,0,1-1.1-1.1,3.188,3.188,0,0,1-.394-1.592,3.51,3.51,0,0,1,.515-1.871,3.641,3.641,0,0,1,1.4-1.318,4.03,4.03,0,0,1,1.945-.478,3.432,3.432,0,0,1,1.43.316" transform="translate(-155.225 -2.806)" fill="#fff"/>
      <path id="Trazado_14359" data-name="Trazado 14359" d="M415.82,13.961l-.2-1.04h-2.628l-.567,1.04h-1.968L414.3,7.452h1.987l1.606,6.509Zm-2.061-2.451h1.578l-.418-2.145Z" transform="translate(-158.786 -2.883)" fill="#fff"/>
      <path id="Trazado_14360" data-name="Trazado 14360" d="M425.308,12.344h2.739l-.325,1.616h-4.67l1.3-6.509h1.931Z" transform="translate(-163.66 -2.883)" fill="#fff"/>
      <path id="Trazado_14361" data-name="Trazado 14361" d="M437.129,7.818a2.464,2.464,0,0,1,1.063,1.031,2.867,2.867,0,0,1,.311,1.537,3.606,3.606,0,0,1-2.056,3.125,4.579,4.579,0,0,1-2.047.45h-2.943l1.291-6.509h2.711a3.585,3.585,0,0,1,1.671.367M436.186,9.4a1.259,1.259,0,0,0-1.007-.427h-.8l-.687,3.473h1.058a1.607,1.607,0,0,0,.864-.242,1.8,1.8,0,0,0,.631-.678,2.278,2.278,0,0,0,.27-1,1.532,1.532,0,0,0-.33-1.123" transform="translate(-166.912 -2.882)" fill="#fff"/>
      <path id="Trazado_14362" data-name="Trazado 14362" d="M448.736,8.937h-3.4l-.2,1.021h3.082l-.3,1.486h-3.083l-.213,1.03h3.491l-.3,1.486H442.4l1.3-6.509h5.329Z" transform="translate(-171.147 -2.883)" fill="#fff"/>
      <path id="Trazado_14363" data-name="Trazado 14363" d="M218.787,8.678a13.169,13.169,0,0,0-5.531-5.762h0A17.187,17.187,0,0,0,204.782.884,22.793,22.793,0,0,0,194.6,3.238,31.484,31.484,0,0,0,187.538,8.6l.943-4.616a2.029,2.029,0,0,0-.438-1.713,2.128,2.128,0,0,0-1.631-.755h-7.065a2.129,2.129,0,0,0-1.506.621c-1.826,1.785-5.8,5.675-6.016,5.9L168.7,2.576a2.119,2.119,0,0,0-1.842-1.057h-5.93a2.131,2.131,0,0,0-1.506.621c-1.826,1.785-8.786,8.578-8.786,8.578l-1.925-7.629a2.1,2.1,0,0,0-2.049-1.569H138.8a2.129,2.129,0,0,0-1.506.623q-2.739,2.676-5.477,5.355a2.083,2.083,0,0,0-.364.445L121.616,24.23c-.074-.007-.147-.012-.222-.012h-9.567l4.132-20.232a2.031,2.031,0,0,0-.437-1.713,2.13,2.13,0,0,0-1.632-.755H84.821a2.132,2.132,0,0,0-1.568.684c-1.807,1.767-8.773,8.646-8.773,8.646L73.011,3.2a2.1,2.1,0,0,0-2.073-1.682H52.794a2.13,2.13,0,0,0-1.507.623C49.365,4.1,40.539,16.152,40.539,16.152l-10.964-.01s6.783-6.041,8.676-7.88a2.028,2.028,0,0,0,.13-2.854A16.186,16.186,0,0,0,31.217.84,18.636,18.636,0,0,0,23.9.082,20.871,20.871,0,0,0,11.51,5.739L5.98,11.148A18.611,18.611,0,0,0,.042,23.492a15.484,15.484,0,0,0,2.641,10.4l.15.231a13.643,13.643,0,0,0,11.4,6.076H193.145v0a21.9,21.9,0,0,0,9.881-2.042,22.163,22.163,0,0,0,5.767-4.145c1.825-1.785,5.6-4.855,7.613-7.83a20.571,20.571,0,0,0,3.671-9.35,14.614,14.614,0,0,0-1.29-8.149" transform="translate(0 0)" fill="#ef8417"/>
      <path id="Trazado_14364" data-name="Trazado 14364" d="M80.953,34.752l-.923-4.6H68.155l-2.56,4.6H57.832L75.2,5.988h7.847l7.26,28.764ZM72.137,23.919h6.634l-1.388-9.479Z" transform="translate(-22.373 -2.317)" fill="#fff"/>
      <path id="Trazado_14365" data-name="Trazado 14365" d="M220.946,34.752l-.923-4.6H208.147l-2.559,4.6h-7.763L215.2,5.988h7.847l7.26,28.764Zm-9.315-10.833h7.133l-1.888-9.479Z" transform="translate(-76.53 -2.317)" fill="#fff"/>
      <path id="Trazado_14366" data-name="Trazado 14366" d="M125.072,5.988h8.938L117.77,34.752h-7.238l-6.42-28.764h7.1l3.825,19.942Z" transform="translate(-40.277 -2.316)" fill="#fff"/>
      <path id="Trazado_14367" data-name="Trazado 14367" d="M160.061,5.988l-5.875,28.764h-7.764L152.3,5.988Z" transform="translate(-56.645 -2.316)" fill="#fff"/>
      <path id="Trazado_14368" data-name="Trazado 14368" d="M172.262,28.641h12.115l-1.182,6.111H163.063l5.875-28.764h7.951Z" transform="translate(-63.082 -2.316)" fill="#fff"/>
      <path id="Trazado_14369" data-name="Trazado 14369" d="M276.85,5.988H283.9l-5.875,28.764H271.52L262.373,18.79,259.1,34.752h-6.5L258.47,5.988h5.917l9.19,16.085Z" transform="translate(-97.718 -2.316)" fill="#fff"/>
      <path id="Trazado_14370" data-name="Trazado 14370" d="M328.558,6.71a11.056,11.056,0,0,1,4.667,4.854,12.548,12.548,0,0,1,1.092,7.024,16.908,16.908,0,0,1-3.277,8.345,19.636,19.636,0,0,1-7.09,5.928,20.236,20.236,0,0,1-9.214,2.169,14.814,14.814,0,0,1-7.411-1.776,11.118,11.118,0,0,1-4.662-4.9,12.719,12.719,0,0,1-1.085-7.085,16.8,16.8,0,0,1,3.274-8.325,19.334,19.334,0,0,1,7.084-5.866,20.527,20.527,0,0,1,9.21-2.128,14.971,14.971,0,0,1,7.413,1.755m-12.9,6.528a10.037,10.037,0,0,0-3.361,3.119,9.369,9.369,0,0,0-1.614,4.338,7.251,7.251,0,0,0,.467,3.656,5.769,5.769,0,0,0,2.3,2.736,5.532,5.532,0,0,0,2.957.8,7.818,7.818,0,0,0,4.012-1.157,9.8,9.8,0,0,0,3.239-3.16,9.98,9.98,0,0,0,1.557-4.4,7.535,7.535,0,0,0-.41-3.594,5.4,5.4,0,0,0-1.961-2.541,5.3,5.3,0,0,0-3.109-.93,8.174,8.174,0,0,0-4.074,1.136" transform="translate(-116.63 -1.917)" fill="#fff"/>
      <path id="Trazado_14371" data-name="Trazado 14371" d="M42.857,19.93,41.14,24.7h0L37.7,34.257H33.284l1.694-4.736h0l-2.285,1.787-.006,0a10.628,10.628,0,0,1-.968.757,13.882,13.882,0,0,1-4.795,2.188,10.684,10.684,0,0,1-1.616.243,12.425,12.425,0,0,1-3.713-.243h0a10.158,10.158,0,0,1-1.105-.316A11.59,11.59,0,0,1,14.508,29.4l0,0a13.411,13.411,0,0,1-2.15-4.691,16.628,16.628,0,0,1-.334-4.773h0c.527-8.672,8.187-15.41,16.516-16.169.529-.047,1.061-.072,1.6-.072a16.256,16.256,0,0,1,4.916.743l.132.044a14.092,14.092,0,0,1,6.136,3.95l-.151.119-3.056,2.391-2.28,1.782-.821.643a7.458,7.458,0,0,0-6.271-2.2h0a9.259,9.259,0,0,0-8.062,8.775c-.013.215-.02.433-.02.655a9.092,9.092,0,0,0,.616,3.521,5.807,5.807,0,0,0,.289.6,5.39,5.39,0,0,0,4.99,2.7c.147,0,.293-.006.439-.02A8.454,8.454,0,0,0,30.77,25.9a11.763,11.763,0,0,0,1.537-1.2H27.945l1.708-4.773Z" transform="translate(-4.636 -1.427)" fill="#fff"/>
      <path id="Trazado_14372" data-name="Trazado 14372" d="M402.053,41.171a2.021,2.021,0,0,0-1.735,1.1,7.981,7.981,0,0,0-.692,3.954,2.626,2.626,0,0,0,.261,1.347.914.914,0,0,0,.836.414,2.008,2.008,0,0,0,1.716-1.105,8.036,8.036,0,0,0,.692-3.962,2.579,2.579,0,0,0-.261-1.339.9.9,0,0,0-.817-.4" transform="translate(-154.598 -15.927)" fill="#d70e2b"/>
      <path id="Trazado_14373" data-name="Trazado 14373" d="M435.056,50.282a1.083,1.083,0,0,0,.782.251,1.5,1.5,0,0,0,1.133-.413,1.624,1.624,0,0,0,.395-1.168.943.943,0,0,0-.251-.71,1.053,1.053,0,0,0-.755-.242,1.532,1.532,0,0,0-1.159.422,1.582,1.582,0,0,0-.4,1.142.951.951,0,0,0,.26.719" transform="translate(-168.204 -18.569)" fill="#d70e2b"/>
      <path id="Trazado_14374" data-name="Trazado 14374" d="M367.908,28.38l-4.532,22.8h54.441l4.532-22.8Zm12.915,14.348-.628,3.2h-9.884L370.8,43.3l5.3-4.546q1.276-1.114,1.276-1.725a.465.465,0,0,0-.2-.4.94.94,0,0,0-.557-.143,4.3,4.3,0,0,0-1.68.432,12.1,12.1,0,0,0-2.058,1.186l-.971-3a11.814,11.814,0,0,1,6-1.958,5.477,5.477,0,0,1,2.075.368,3.26,3.26,0,0,1,1.411,1.033,2.466,2.466,0,0,1,.5,1.527,3.657,3.657,0,0,1-.863,2.247,16.461,16.461,0,0,1-2.515,2.48L376.2,42.728Zm9.155,2.336a7.278,7.278,0,0,1-3.854.988,4.682,4.682,0,0,1-3.532-1.258A4.971,4.971,0,0,1,381.38,41.2a9.776,9.776,0,0,1,.853-4.214,6.35,6.35,0,0,1,2.489-2.794,7.392,7.392,0,0,1,3.9-.988,4.647,4.647,0,0,1,3.5,1.248,4.966,4.966,0,0,1,1.2,3.585,9.744,9.744,0,0,1-.863,4.223,6.406,6.406,0,0,1-2.489,2.8m12.785-2.336-.628,3.2h-9.884l.486-2.624,5.3-4.546q1.276-1.114,1.276-1.725a.464.464,0,0,0-.2-.4.94.94,0,0,0-.557-.143,4.3,4.3,0,0,0-1.68.432,12.144,12.144,0,0,0-2.058,1.186l-.97-3a11.811,11.811,0,0,1,6-1.958,5.483,5.483,0,0,1,2.076.368,3.254,3.254,0,0,1,1.41,1.033,2.466,2.466,0,0,1,.5,1.527,3.653,3.653,0,0,1-.863,2.247,16.463,16.463,0,0,1-2.515,2.48l-2.319,1.923Zm7.458-5.193a3.173,3.173,0,0,1,2.4.907,3.345,3.345,0,0,1,.871,2.417,4.982,4.982,0,0,1-.755,2.722,5.127,5.127,0,0,1-2.066,1.86,6.375,6.375,0,0,1-2.929.665,4.238,4.238,0,0,1-3.315-1.3,5.127,5.127,0,0,1-1.177-3.567,8.788,8.788,0,0,1,.971-4.16,7.3,7.3,0,0,1,2.668-2.884,7.087,7.087,0,0,1,3.782-1.042,8.354,8.354,0,0,1,2.229.3,5.337,5.337,0,0,1,1.761.8l-2.049,2.767a3.185,3.185,0,0,0-2.3-.827,2.651,2.651,0,0,0-2.858,2.372,3.935,3.935,0,0,1,2.768-1.025" transform="translate(-140.574 -10.979)" fill="#d70e2b"/>
    </g>
  </g>
</svg>
